<svg xmlns="http://www.w3.org/2000/svg" xmlns:xlink="http://www.w3.org/1999/xlink" width="191" zoomAndPan="magnify" viewBox="0 0 143.25 44.999999" height="60" preserveAspectRatio="xMidYMid meet" version="1.0"><defs><g/><clipPath id="9763299baf"><path d="M 1 0.117188 L 11 0.117188 L 11 43 L 1 43 Z M 1 0.117188 " clip-rule="nonzero"/></clipPath></defs><g clip-path="url(#9763299baf)"><g fill="#f1eaea" fill-opacity="1"><g transform="translate(-1.197465, 42.60576)"><g><path d="M 2.96875 0 L 2.96875 -42.453125 L 11.703125 -42.453125 L 11.703125 0 Z M 2.96875 0 "/></g></g></g></g><g fill="#f1eaea" fill-opacity="1"><g transform="translate(8.819121, 42.60576)"><g><path d="M 5.359375 -3.015625 C 2.546875 -5.515625 1.140625 -8.722656 1.140625 -12.640625 C 1.140625 -16.554688 2.601562 -19.769531 5.53125 -22.28125 C 8.457031 -24.800781 12.078125 -26.0625 16.390625 -26.0625 C 20.628906 -26.0625 24.203125 -24.789062 27.109375 -22.25 C 30.023438 -19.71875 31.484375 -16.507812 31.484375 -12.625 C 31.484375 -8.75 30.0625 -5.550781 27.21875 -3.03125 C 24.375 -0.519531 20.765625 0.734375 16.390625 0.734375 C 11.847656 0.734375 8.171875 -0.515625 5.359375 -3.015625 Z M 12.125 -16.921875 C 10.988281 -15.804688 10.421875 -14.375 10.421875 -12.625 C 10.421875 -10.882812 10.960938 -9.460938 12.046875 -8.359375 C 13.128906 -7.265625 14.5625 -6.71875 16.34375 -6.71875 C 18.050781 -6.71875 19.457031 -7.273438 20.5625 -8.390625 C 21.664062 -9.503906 22.21875 -10.921875 22.21875 -12.640625 C 22.21875 -14.378906 21.648438 -15.804688 20.515625 -16.921875 C 19.378906 -18.046875 17.988281 -18.609375 16.34375 -18.609375 C 14.664062 -18.609375 13.257812 -18.046875 12.125 -16.921875 Z M 12.125 -16.921875 "/></g></g></g><g fill="#f1eaea" fill-opacity="1"><g transform="translate(36.798757, 42.60576)"><g><path d="M 11.203125 -25.328125 L 11.203125 -13.28125 C 11.203125 -10.78125 11.578125 -9.003906 12.328125 -7.953125 C 13.085938 -6.898438 14.375 -6.375 16.1875 -6.375 C 18 -6.375 19.28125 -6.898438 20.03125 -7.953125 C 20.789062 -9.003906 21.171875 -10.78125 21.171875 -13.28125 L 21.171875 -25.328125 L 29.90625 -25.328125 L 29.90625 -11.15625 C 29.90625 -6.945312 28.8125 -3.910156 26.625 -2.046875 C 24.4375 -0.191406 20.957031 0.734375 16.1875 0.734375 C 11.414062 0.734375 7.9375 -0.191406 5.75 -2.046875 C 3.5625 -3.910156 2.46875 -6.945312 2.46875 -11.15625 L 2.46875 -25.328125 Z M 11.203125 -25.328125 "/></g></g></g><g fill="#f1eaea" fill-opacity="1"><g transform="translate(64.531655, 42.60576)"><g><path d="M 2.96875 0 L 2.96875 -25.328125 L 11.703125 -25.328125 L 11.703125 -22.65625 L 11.796875 -22.65625 C 14.066406 -24.925781 16.484375 -26.0625 19.046875 -26.0625 C 20.296875 -26.0625 21.535156 -25.894531 22.765625 -25.5625 C 24.003906 -25.238281 25.191406 -24.726562 26.328125 -24.03125 C 27.460938 -23.34375 28.382812 -22.363281 29.09375 -21.09375 C 29.800781 -19.832031 30.15625 -18.363281 30.15625 -16.6875 L 30.15625 0 L 21.421875 0 L 21.421875 -14.3125 C 21.421875 -15.625 21 -16.773438 20.15625 -17.765625 C 19.320312 -18.753906 18.226562 -19.25 16.875 -19.25 C 15.5625 -19.25 14.367188 -18.738281 13.296875 -17.71875 C 12.234375 -16.695312 11.703125 -15.5625 11.703125 -14.3125 L 11.703125 0 Z M 2.96875 0 "/></g></g></g><g fill="#f1eaea" fill-opacity="1"><g transform="translate(92.511292, 42.60576)"><g><path d="M 28.578125 -11.453125 L 10.21875 -11.453125 C 10.21875 -9.671875 10.789062 -8.351562 11.9375 -7.5 C 13.09375 -6.644531 14.347656 -6.21875 15.703125 -6.21875 C 17.109375 -6.21875 18.222656 -6.40625 19.046875 -6.78125 C 19.867188 -7.164062 20.804688 -7.914062 21.859375 -9.03125 L 28.1875 -5.875 C 25.550781 -1.46875 21.171875 0.734375 15.046875 0.734375 C 11.234375 0.734375 7.960938 -0.570312 5.234375 -3.1875 C 2.503906 -5.800781 1.140625 -8.953125 1.140625 -12.640625 C 1.140625 -16.328125 2.503906 -19.484375 5.234375 -22.109375 C 7.960938 -24.742188 11.234375 -26.0625 15.046875 -26.0625 C 19.066406 -26.0625 22.332031 -24.898438 24.84375 -22.578125 C 27.363281 -20.265625 28.625 -16.953125 28.625 -12.640625 C 28.625 -12.046875 28.609375 -11.648438 28.578125 -11.453125 Z M 10.46875 -16.28125 L 20.09375 -16.28125 C 19.894531 -17.601562 19.375 -18.617188 18.53125 -19.328125 C 17.695312 -20.035156 16.617188 -20.390625 15.296875 -20.390625 C 13.847656 -20.390625 12.695312 -20.007812 11.84375 -19.25 C 10.988281 -18.488281 10.53125 -17.5 10.46875 -16.28125 Z M 10.46875 -16.28125 "/></g></g></g><g fill="#f1eaea" fill-opacity="1"><g transform="translate(117.628689, 42.60576)"><g/></g></g><g fill="#f1eaea" fill-opacity="1"><g transform="translate(126.460899, 42.60576)"><g><path d="M 8.59375 -10.5625 C 10.164062 -10.5625 11.503906 -10.007812 12.609375 -8.90625 C 13.710938 -7.800781 14.265625 -6.460938 14.265625 -4.890625 C 14.265625 -3.335938 13.710938 -2.007812 12.609375 -0.90625 C 11.503906 0.1875 10.164062 0.734375 8.59375 0.734375 C 7.039062 0.734375 5.710938 0.1875 4.609375 -0.90625 C 3.515625 -2.007812 2.96875 -3.335938 2.96875 -4.890625 C 2.96875 -6.460938 3.515625 -7.800781 4.609375 -8.90625 C 5.710938 -10.007812 7.039062 -10.5625 8.59375 -10.5625 Z M 8.59375 -10.5625 "/></g></g></g></svg>