<svg xmlns="http://www.w3.org/2000/svg" xmlns:xlink="http://www.w3.org/1999/xlink" width="191" zoomAndPan="magnify" viewBox="0 0 143.25 44.999999" height="60" preserveAspectRatio="xMidYMid meet" version="1.0"><defs><g/></defs><g fill="#fafbdc" fill-opacity="1"><g transform="translate(-2.755623, 42.781706)"><g><path d="M 4.171875 -34.109375 L 14.53125 -34.109375 L 14.53125 0 L 4.171875 0 Z M 4.171875 -34.109375 "/></g></g></g><g fill="#fafbdc" fill-opacity="1"><g transform="translate(9.713378, 42.781706)"><g><path d="M 1.953125 -13.015625 C 1.953125 -14.941406 2.300781 -16.695312 3 -18.28125 C 3.695312 -19.863281 4.65625 -21.242188 5.875 -22.421875 C 8.507812 -24.921875 11.820312 -26.171875 15.8125 -26.171875 C 19.875 -26.171875 23.179688 -24.867188 25.734375 -22.265625 C 28.179688 -19.804688 29.40625 -16.695312 29.40625 -12.9375 C 29.40625 -9.164062 28.148438 -6.007812 25.640625 -3.46875 C 23.054688 -0.851562 19.75 0.453125 15.71875 0.453125 C 11.78125 0.453125 8.515625 -0.789062 5.921875 -3.28125 C 3.273438 -5.851562 1.953125 -9.097656 1.953125 -13.015625 Z M 15.046875 -1.34375 C 15.171875 -1.332031 15.296875 -1.328125 15.421875 -1.328125 L 15.765625 -1.328125 C 19.003906 -1.328125 21.726562 -2.332031 23.9375 -4.34375 C 26.28125 -6.507812 27.453125 -9.351562 27.453125 -12.875 C 27.453125 -16.3125 26.351562 -19.097656 24.15625 -21.234375 C 21.976562 -23.359375 19.171875 -24.421875 15.734375 -24.421875 L 15.375 -24.421875 C 15.257812 -24.421875 15.148438 -24.410156 15.046875 -24.390625 Z M 15.046875 -1.34375 "/></g></g></g><g fill="#fafbdc" fill-opacity="1"><g transform="translate(35.341503, 42.781706)"><g><path d="M 12.609375 0.453125 C 6.960938 0.453125 4.140625 -2.300781 4.140625 -7.8125 L 4.140625 -25.734375 L 14.453125 -25.734375 L 14.453125 -2.140625 C 14.617188 -2.066406 14.820312 -2.03125 15.0625 -2.03125 L 15.859375 -2.03125 C 17.140625 -2.03125 18.664062 -2.894531 20.4375 -4.625 C 20.96875 -5.15625 21.46875 -5.734375 21.9375 -6.359375 L 21.9375 -25.734375 L 32.296875 -25.734375 L 32.296875 0 L 21.9375 0 L 21.9375 -3.71875 C 19.3125 -0.9375 16.203125 0.453125 12.609375 0.453125 Z M 12.609375 0.453125 "/></g></g></g><g fill="#fafbdc" fill-opacity="1"><g transform="translate(65.572911, 42.781706)"><g><path d="M 22 -23.109375 C 21.601562 -23.367188 21.171875 -23.5 20.703125 -23.5 C 20.234375 -23.5 19.75 -23.390625 19.25 -23.171875 C 18.757812 -22.953125 18.238281 -22.648438 17.6875 -22.265625 C 16.550781 -21.453125 15.5 -20.359375 14.53125 -18.984375 L 14.53125 0 L 4.171875 0 L 4.171875 -25.734375 L 14.53125 -25.734375 L 14.53125 -21.625 C 17.28125 -24.65625 20.390625 -26.171875 23.859375 -26.171875 C 29.535156 -26.171875 32.375 -23.425781 32.375 -17.9375 L 32.375 0 L 22 0 Z M 22 -23.109375 "/></g></g></g><g fill="#fafbdc" fill-opacity="1"><g transform="translate(95.876621, 42.781706)"><g><path d="M 26.53125 -5.859375 C 27.15625 -5.859375 27.46875 -5.566406 27.46875 -4.984375 C 27.46875 -4.554688 27.1875 -4.046875 26.625 -3.453125 C 24.09375 -0.847656 20.617188 0.453125 16.203125 0.453125 C 12.234375 0.453125 8.890625 -0.742188 6.171875 -3.140625 C 3.359375 -5.628906 1.953125 -8.773438 1.953125 -12.578125 C 1.953125 -16.460938 3.222656 -19.660156 5.765625 -22.171875 C 8.441406 -24.835938 12.007812 -26.171875 16.46875 -26.171875 C 20.03125 -26.171875 23.023438 -25.085938 25.453125 -22.921875 C 28.066406 -20.585938 29.375 -17.523438 29.375 -13.734375 C 29.375 -13.191406 29.359375 -12.613281 29.328125 -12 L 13.421875 -12 L 13.421875 -1.65625 C 14.515625 -1.4375 15.742188 -1.328125 17.109375 -1.328125 C 20.003906 -1.328125 22.472656 -2.28125 24.515625 -4.1875 C 24.929688 -4.601562 25.226562 -4.9375 25.40625 -5.1875 C 25.769531 -5.632812 26.144531 -5.859375 26.53125 -5.859375 Z M 20.09375 -23.953125 C 19.050781 -24.265625 17.867188 -24.421875 16.546875 -24.421875 C 15.234375 -24.421875 14.191406 -24.332031 13.421875 -24.15625 L 13.421875 -13.765625 L 20.09375 -13.765625 Z M 20.09375 -23.953125 "/></g></g></g><g fill="#fafbdc" fill-opacity="1"><g transform="translate(121.432437, 42.781706)"><g/></g></g><g fill="#fafbdc" fill-opacity="1"><g transform="translate(126.647044, 42.781706)"><g><path d="M 2.703125 -2.625 C 2.460938 -3.269531 2.34375 -3.945312 2.34375 -4.65625 C 2.34375 -5.363281 2.484375 -6.007812 2.765625 -6.59375 C 3.046875 -7.175781 3.441406 -7.691406 3.953125 -8.140625 C 5.046875 -9.117188 6.410156 -9.609375 8.046875 -9.609375 C 9.734375 -9.609375 11.097656 -9.054688 12.140625 -7.953125 C 13.109375 -6.941406 13.59375 -5.753906 13.59375 -4.390625 C 13.59375 -3.023438 13.046875 -1.882812 11.953125 -0.96875 C 10.828125 -0.0195312 9.476562 0.453125 7.90625 0.453125 C 5.238281 0.453125 3.503906 -0.570312 2.703125 -2.625 Z M 2.703125 -2.625 "/></g></g></g></svg>